<?xml version="1.0" encoding="utf-8"?>
<!DOCTYPE svg PUBLIC "-//W3C//DTD SVG 20010904//EN" "http://www.w3.org/TR/2001/REC-SVG-20010904/DTD/svg10.dtd">
<svg version="1.0" xmlns="http://www.w3.org/2000/svg" width="252pt" height="252pt" viewBox="0 0 252 252" style="" preserveAspectRatio="xMidYMid meet">
<g fill="#FF5235FF" stroke="#FF5235FF">
<path d="M 29.295 10.107 C 22.557 12.055 23.000 3.882 23.000 126.268 L 23.000 237.091 25.455 239.545 C 27.858 241.949 28.246 242.000 44.048 242.000 L 60.188 242.000 59.578 237.250 C 58.258 226.974 57.016 208.702 55.939 183.682 C 54.724 155.494 54.982 86.682 56.307 85.359 C 58.143 83.525 62.943 88.253 71.195 100.024 C 84.454 118.935 91.322 124.295 100.154 122.626 C 109.319 120.895 113.708 114.334 116.477 98.221 C 118.445 86.771 119.305 84.442 122.123 82.934 C 125.119 81.331 126.126 82.841 130.093 94.894 C 136.282 113.700 141.193 122.631 150.576 132.149 C 159.224 140.922 168.526 145.251 183.347 147.402 L 191.500 148.586 191.283 152.269 C 190.989 157.246 187.719 163.358 183.759 166.331 C 180.936 168.450 168.190 173.850 153.000 179.361 C 141.571 183.508 136.769 189.388 136.172 199.969 C 135.643 209.318 138.215 213.887 151.311 226.868 L 161.772 237.237 166.674 235.608 C 174.125 233.133 186.112 225.716 193.072 219.274 C 208.976 204.553 220.319 182.855 226.089 156.116 C 229.071 142.298 229.837 112.570 227.604 97.378 C 225.390 82.319 222.592 72.082 218.018 62.308 C 208.233 41.399 194.484 27.176 175.642 18.470 C 165.228 13.659 153.818 11.168 136.899 10.013 C 118.862 8.781 33.622 8.856 29.295 10.107 "/></g>
<g fill="#FF5235B8" stroke="#FF5235B8">
<path d="M 146.000 222.000 L 150.000 226.000 146.000 222.000 L 142.000 218.000 146.000 222.000 "/></g>
<g fill="#FF4E3B0D" stroke="#FF4E3B0D">
<path d="M 145.500 222.500 L 149.000 226.000 145.500 222.500 L 142.000 219.000 145.500 222.500 "/></g>
<g fill="#FF4E3B0D" stroke="#FF4E3B0D">
<path d="M 149.500 132.500 L 153.000 136.000 149.500 132.500 L 146.000 129.000 149.500 132.500 "/></g>
<g fill="#FF4E3B0D" stroke="#FF4E3B0D">
<path d="M 185.000 163.924 L 182.500 166.566 185.000 163.924 L 187.500 161.282 185.000 163.924 "/></g>
<g fill="#FF4E3B0D" stroke="#FF4E3B0D">
<path d="M 62.000 89.000 L 65.000 92.000 62.000 89.000 L 59.000 86.000 62.000 89.000 "/></g>
<g fill="#FF5235B8" stroke="#FF5235B8">
<path d="M 62.000 88.000 L 64.500 90.500 62.000 88.000 L 59.500 85.500 62.000 88.000 "/></g>
<g fill="#FF5235B8" stroke="#FF5235B8">
<path d="M 186.000 163.888 L 184.500 165.563 186.000 163.888 L 187.500 162.212 186.000 163.888 "/></g>
<g fill="#FF5235B8" stroke="#FF5235B8">
<path d="M 148.000 130.000 L 150.000 132.000 148.000 130.000 L 146.000 128.000 148.000 130.000 "/></g>
<g fill="#FF523599" stroke="#FF523599">
<path d="M 83.000 116.000 L 85.000 118.000 83.000 116.000 L 81.000 114.000 83.000 116.000 "/></g>
<g fill="#FF5235B8" stroke="#FF5235B8">
<path d="M 152.500 134.500 L 154.000 136.000 152.500 134.500 L 151.000 133.000 152.500 134.500 "/></g>
<g fill="#FF52344E" stroke="#FF52344E">
<path d="M 157.500 233.500 L 159.000 235.000 157.500 233.500 L 156.000 232.000 157.500 233.500 "/></g>
<g fill="#FF53372E" stroke="#FF53372E">
<path d="M 109.378 118.378 L 108.500 119.256 109.378 118.378 L 110.256 117.500 109.378 118.378 "/></g>
</svg>
